#!OML:ASF X:\für Bonn\!DataBase\2005_08_11_Bastian_Final\c3d\Bastian.ASF
:FULLY-SPECIFIED
:DEGREES
64
root 0.685555 6.62307 1.09025 167.024 -1.2003 -174.645
lowerback 37.0964 1.1526 0.123444
upperback 6.14086 -0.585528 1.58354
thorax -11.566 -1.227 2.0805
lowerneck -13.7589 -6.83596 -2.77866
upperneck -12.8875 -6.10646 11.7311
head -1.31472 -2.10173 4.16064
rclavicle 1.78906e-015 1.07344e-014
rhumerus 69.4325 -4.4679 21.8585
rradius 43.2432
rwrist -77.4854
rhand -47.4121 -4.13813
rfingers 7.12502
rthumb -20.1034 -33.118
lclavicle 1.78906e-015 1.07344e-014
lhumerus 60.7156 -1.20042 -21.3088
lradius 32.9114
lwrist 21.3969
lhand -45.6898 17.3246
lfingers 7.12502
lthumb -18.4473 46.4699
rfemur -43.0506 -71.9455 -4.01604
rtibia 159.382
rfoot -52.9801 -0.138852
rtoes -1.67098
lfemur -53.6061 71.2704 9.23764
ltibia 161.958
lfoot -51.9358 -22.3009
ltoes -8.17532
65
root 0.687705 6.51864 1.10087 166.92 -1.1981 -174.755
lowerback 37.4736 1.26489 0.0634959
upperback 6.21023 -0.525689 1.52864
thorax -11.6251 -1.21964 2.03619
lowerneck -13.4933 -6.86098 -2.74881
upperneck -13.1912 -6.08616 11.814
head -1.46122 -2.09576 4.2001
rclavicle -2.18663e-015 -6.36111e-015
rhumerus 69.3416 -4.6397 21.2174
rradius 43.2568
rwrist -77.8277
rhand -47.1502 -3.959
rfingers 7.12502
rthumb -19.8517 -32.9651
lclavicle -2.18663e-015 -6.36111e-015
lhumerus 60.8717 -1.14065 -20.7231
lradius 32.8216
lwrist 21.037
lhand -45.7396 17.0643
lfingers 7.12502
lthumb -18.4952 46.205
rfemur -39.4489 -74.2387 -8.07214
rtibia 160.151
rfoot -53.0829 -0.754633
rtoes -1.95011
lfemur -52.5139 73.0643 10.5019
ltibia 162.698
lfoot -52.1684 -21.6589
ltoes -8.39267
66
root 0.689091 6.42644 1.11389 166.884 -1.22398 -174.882
lowerback 37.7507 1.37573 0.015018
upperback 6.28055 -0.455828 1.46767
thorax -11.6463 -1.20465 1.97227
lowerneck -13.2466 -6.89583 -2.67936
upperneck -13.4886 -6.08539 11.8586
head -1.60428 -2.10028 4.21728
rclavicle -4.57205e-015 -3.57812e-015
rhumerus 69.2508 -4.76362 20.4528
rradius 43.2308
rwrist -78.0268
rhand -46.8778 -3.79738
rfingers 7.12502
rthumb -19.5898 -32.8304
lclavicle -4.57205e-015 -3.57812e-015
lhumerus 61.0982 -1.211 -20.4631
lradius 32.8251
lwrist 21.2076
lhand -45.8477 16.9125
lfingers 7.12502
lthumb -18.5992 46.0433
rfemur -36.0289 -76.1622 -12.0174
rtibia 160.808
rfoot -53.0533 -1.338
rtoes -2.29662
lfemur -52.267 74.4365 10.9265
ltibia 163.32
lfoot -52.2145 -21.2243
ltoes -8.2289
67
root 0.691281 6.36869 1.12948 166.901 -1.24717 -174.994
lowerback 38.0171 1.47043 -0.0802803
upperback 6.33756 -0.420205 1.41872
thorax -11.6774 -1.20188 1.95998
lowerneck -13.0693 -6.88371 -2.52728
upperneck -13.7375 -6.0382 11.8429
head -1.7286 -2.08307 4.19677
rclavicle 1.59028e-015 5.1684e-015
rhumerus 69.3081 -4.86702 19.5504
rradius 43.1652
rwrist -78.0955
rhand -46.7191 -3.6331
rfingers 7.12502
rthumb -19.4372 -32.6816
lclavicle 1.59028e-015 5.1684e-015
lhumerus 61.1793 -1.48967 -20.6686
lradius 33.0119
lwrist 22.0551
lhand -46.08 16.8638
lfingers 7.12502
lthumb -18.8226 45.9731
rfemur -35.0025 -77.0724 -13.3016
rtibia 161.196
rfoot -53.0056 -1.93922
rtoes -2.93569
lfemur -52.7419 75.1712 10.4791
ltibia 163.678
lfoot -52.2225 -20.9636
ltoes -7.87111
68
root 0.693245 6.38375 1.14864 166.96 -1.28377 -175.087
lowerback 38.4657 1.5811 -0.227477
upperback 6.3112 -0.370689 1.411
thorax -11.8678 -1.18569 2.01805
lowerneck -12.901 -6.87467 -2.38891
upperneck -13.9603 -6.00023 11.8226
head -1.84162 -2.071 4.1761
rclavicle -8.54774e-015 -1.31198e-014
rhumerus 69.4184 -4.87775 18.581
rradius 43.0644
rwrist -77.9509
rhand -46.6101 -3.41853
rfingers 7.12502
rthumb -19.3324 -32.4776
lclavicle -8.54774e-015 -1.31198e-014
lhumerus 61.2261 -1.98404 -21.2776
lradius 33.3787
lwrist 23.5713
lhand -46.4224 16.9943
lfingers 7.12502
lthumb -19.1519 46.0713
rfemur -39.429 -76.1548 -8.55602
rtibia 161.037
rfoot -52.8851 -2.52806
rtoes -3.83618
lfemur -54.5757 74.3433 8.02344
ltibia 163.478
lfoot -52.3587 -20.6343
ltoes -7.65932
69
root 0.695035 6.41599 1.16992 167.022 -1.31669 -175.151
lowerback 38.9037 1.67139 -0.341756
upperback 6.29378 -0.339405 1.39341
thorax -12.042 -1.17979 2.05515
lowerneck -12.8318 -6.84603 -2.18057
upperneck -14.1055 -5.95497 11.7553
head -1.91638 -2.05475 4.12088
rclavicle -1.07344e-014 -2.78299e-015
rhumerus 69.5526 -4.81123 17.5968
rradius 42.9654
rwrist -77.6585
rhand -46.6896 -3.14646
rfingers 7.12502
rthumb -19.4088 -32.1978
lclavicle -1.07344e-014 -2.78299e-015
lhumerus 61.2667 -2.61815 -22.0909
lradius 33.8273
lwrist 25.4168
lhand -46.8798 17.2545
lfingers 7.12502
lthumb -19.5917 46.2873
rfemur -43.919 -74.7736 -3.75665
rtibia 160.75
rfoot -52.7412 -2.90649
rtoes -4.50226
lfemur -56.4233 73.2441 5.67187
ltibia 163.153
lfoot -52.3983 -20.4857
ltoes -7.50187
70
root 0.695973 6.46636 1.19225 167.113 -1.35115 -175.18
lowerback 39.2954 1.75878 -0.446577
upperback 6.28202 -0.302245 1.41427
thorax -12.1925 -1.17109 2.12515
lowerneck -12.9211 -6.81132 -2.01252
upperneck -14.0912 -5.92534 11.6664
head -1.90802 -2.04072 4.05582
rclavicle -3.97569e-015 -2.26615e-014
rhumerus 69.6819 -4.65192 16.8109
rradius 42.8593
rwrist -77.2604
rhand -46.9335 -2.78682
rfingers 7.12502
rthumb -19.6434 -31.8144
lclavicle -3.97569e-015 -2.26615e-014
lhumerus 61.3153 -3.39705 -23.1133
lradius 34.3562
lwrist 27.5762
lhand -47.4169 17.6662
lfingers 7.12502
lthumb -20.1081 46.6456
rfemur -48.4375 -72.8198 1.11679
rtibia 160.306
rfoot -52.5366 -3.23072
rtoes -5.29233
lfemur -58.2623 71.8318 3.45086
ltibia 162.697
lfoot -52.3888 -20.5404
ltoes -7.40147
